<?xml version="1.0" encoding="UTF-8"?>
<svg id="Layer_2" xmlns="http://www.w3.org/2000/svg" xmlns:xlink="http://www.w3.org/1999/xlink" viewBox="0 0 1951.49 1300.99">
  <defs>
    <style>
      .cls-1, .cls-2 {
        fill: none;
      }

      .cls-2 {
        stroke: #f2faf9;
        stroke-linecap: round;
        stroke-linejoin: round;
      }

      .cls-3 {
        opacity: .26;
      }

      .cls-4 {
        clip-path: url(#clippath);
      }
    </style>
    <clipPath id="clippath">
      <rect class="cls-1" width="1951.49" height="1300.99"/>
    </clipPath>
  </defs>
  <g id="MESA_1">
    <g class="cls-3">
      <g class="cls-4">
        <g>
          <path class="cls-2" d="M-256.69,174.94c27.77,0,340.21,128.7,263.84,504.37-76.37,375.66-291.09,667.51,36.71,1055.27"/>
          <path class="cls-2" d="M-177.72,120.27c24.3,0,306.36,172.28,230.86,548.72-75.51,376.44-307.48,685.2,134.83,1065.6"/>
          <path class="cls-2" d="M-98.74,65.59c20.83,0,272.52,215.86,197.88,593.08-74.64,377.22-323.86,702.88,232.96,1075.92"/>
          <path class="cls-2" d="M-19.76,10.91c17.36,0,238.67,259.44,164.9,637.43-73.77,377.99-340.25,720.56,331.08,1086.24"/>
          <path class="cls-2" d="M59.22-43.76c13.89,0,204.82,303.02,131.92,681.79-72.9,378.77-356.63,738.25,429.2,1096.56"/>
          <path class="cls-2" d="M138.19-98.44c10.41,0,170.97,346.6,98.94,726.14-72.03,379.54-373.01,755.93,527.33,1106.88"/>
          <path class="cls-2" d="M217.17-153.12c6.94,0,137.13,390.18,65.96,770.49-71.17,380.32-389.4,773.61,625.45,1117.21"/>
          <path class="cls-2" d="M296.15-207.79c3.47,0,103.28,433.76,32.98,814.85-70.3,381.09-405.78,791.3,723.57,1127.53"/>
          <path class="cls-2" d="M375.13-262.47s69.43,477.34,0,859.2c-69.43,381.87-422.17,808.98,821.7,1137.85"/>
          <path class="cls-2" d="M416.21-262.47s34.14,473.86,0,854c-34.14,380.13-299.85,760.25,879.67,1085.72"/>
          <path class="cls-2" d="M457.28-262.47s-1.16,470.39,0,848.79c1.16,378.4-177.54,711.53,937.65,1033.58"/>
          <path class="cls-2" d="M498.36-262.47s-36.45,466.92,0,843.58c36.45,376.66-55.22,662.81,995.62,981.45"/>
          <path class="cls-2" d="M539.44-262.47s-71.74,463.45,0,838.37c71.75,374.93,67.09,614.08,1053.6,929.31"/>
          <path class="cls-2" d="M580.52-262.47s-107.04,459.98,0,833.17,189.41,565.36,1111.57,877.18"/>
          <path class="cls-2" d="M621.6-262.47s-142.33,456.51,0,827.96c142.33,371.45,311.72,516.63,1169.55,825.04"/>
          <path class="cls-2" d="M662.68-262.47s-177.63,453.03,0,822.75c177.63,369.72,434.04,467.91,1227.52,772.91"/>
          <path class="cls-2" d="M703.76-262.47s-212.92,449.56,0,817.55c212.92,367.98,556.35,419.18,1285.5,720.77"/>
          <path class="cls-2" d="M744.84-262.47s-248.21,446.09,0,812.34c248.21,366.25,678.67,370.46,1343.47,668.64"/>
          <path class="cls-2" d="M785.92-262.47s-283.51,442.62,0,807.13c283.51,364.51,800.98,321.73,1401.45,616.5"/>
          <path class="cls-2" d="M827-262.47s-318.8,439.15,0,801.92c318.8,362.77,923.3,273.01,1459.42,564.37"/>
          <path class="cls-2" d="M868.08-262.47s-354.1,435.68,0,796.72c354.1,361.04,1045.61,224.28,1517.4,512.24"/>
          <path class="cls-2" d="M909.16-262.47s-389.39,432.21,0,791.51c389.39,359.3,1167.93,175.56,1575.38,460.1"/>
          <path class="cls-2" d="M950.24-262.47s-424.68,428.73,0,786.3c424.68,357.57,1290.24,126.83,1633.35,407.97"/>
          <path class="cls-2" d="M991.32-262.47s-459.98,425.26,0,781.09c459.98,355.83,1412.56,78.11,1691.33,355.83"/>
          <path class="cls-2" d="M1021.99-262.47s-437.41,413.11,26.61,748.11c464.03,335,1366.99,53.81,1627.17,313.02"/>
          <path class="cls-2" d="M1052.65-262.47s-414.85,400.96,53.23,715.14c468.08,314.17,1321.42,29.51,1563.02,270.2"/>
          <path class="cls-2" d="M1083.32-262.47s-392.28,388.81,79.85,682.16c472.13,293.34,1275.85,5.21,1498.87,227.39"/>
          <path class="cls-2" d="M1113.98-262.47s-369.72,376.66,106.46,649.18c476.18,272.51,1230.28-19.09,1434.71,184.57"/>
          <path class="cls-2" d="M1144.65-262.47s-347.15,364.51,133.08,616.2c480.23,251.69,1184.71-43.39,1370.56,141.75"/>
          <path class="cls-2" d="M1175.31-262.47s-324.59,352.36,159.69,583.22c484.28,230.86,1139.14-67.69,1306.4,98.94"/>
          <path class="cls-2" d="M1205.98-262.47s-302.02,340.21,186.31,550.24c488.33,210.03,1093.58-92,1242.25,56.12"/>
          <path class="cls-2" d="M1236.64-262.47s-279.46,328.06,212.92,517.26c492.38,189.2,1048.01-116.3,1178.1,13.31"/>
          <path class="cls-2" d="M1267.31-262.47s-256.89,315.91,239.54,484.28c496.43,168.37,1002.44-140.6,1113.94-29.51"/>
          <path class="cls-2" d="M1297.97-262.47s-234.33,303.76,266.15,451.3c500.48,147.54,956.87-164.9,1049.79-72.32"/>
          <path class="cls-2" d="M1328.64-262.47s-211.76,291.61,292.77,418.32c504.53,126.71,911.3-189.2,985.64-115.14"/>
          <path class="cls-2" d="M1359.3-262.47S1170.11,16.99,1678.68,122.87c508.58,105.88,865.73-213.5,921.48-157.95"/>
          <path class="cls-2" d="M1389.97-262.47S1223.34,4.84,1735.97,89.89c512.63,85.05,820.16-237.8,857.33-200.77"/>
          <path class="cls-2" d="M1420.63-262.47S1276.57-7.31,1793.25,56.91c516.68,64.22,774.59-262.1,793.18-243.59"/>
          <path class="cls-2" d="M1451.3-262.47S1329.8-19.46,1850.53,23.93c520.73,43.39,729.02-286.4,729.02-286.4"/>
        </g>
      </g>
    </g>
  </g>
</svg>