<svg width="1163" height="275" viewBox="0 0 1163 275" fill="none" xmlns="http://www.w3.org/2000/svg">
<path d="M666.32 174.7C665.46 175.32 664.14 175.75 663.03 176.11C659.06 177.36 655.04 178.46 650.98 179.39C643.48 181.08 635.41 182.21 627.7 181.79C616.46 181.31 606.25 176.8 597.83 169.6C588.55 161.64 580.12 152.53 570.34 145.35C555.47 133.37 537.51 121.43 517.84 129.42C505.57 134.3 495 143.3 488.81 154.95C487.2 157.58 484.95 165.28 484.9 159.44C484.58 138.15 493.17 110.49 510.88 97.45C525.82 86.15 545.69 85.25 562.42 92.83C569.6 96.01 575.96 100.83 581.71 106.02C590.11 113.36 597.2 122.14 603.49 131.15C615.98 149.15 632.59 166.12 654.38 171.57C656.86 172.22 659.68 172.81 662.42 173.21C663.61 173.41 667.31 173.83 666.37 174.68L666.33 174.72L666.32 174.7Z" fill="#F4EFE2"/>
<path d="M666.02 181.07C665.84 180.84 665.19 181.2 664.13 181.97C663.18 182.66 661.9 183.66 660.54 184.57C656.55 187.26 652 189.35 647.38 190.64C624.57 197.18 606.07 190.51 587.75 176.74C571.91 164.8 558.56 147.06 538.51 141.39C522.77 137.23 505.92 145.13 496.72 158.26C484.2 175.69 490.69 203.9 510.03 213.35C518.84 217.88 529.16 216.1 538.07 211.28C539.88 210.27 539.46 209.88 537.87 209.72C528.42 209.11 520.07 202.25 521.67 191.15C522.44 184.62 526.62 178.02 532.95 176.06C540.24 173.45 549.15 175.72 555.23 180.51C573.95 196.35 594.86 218.94 622.08 211.44C637.97 207.82 654.95 199.22 664.08 185.29C664.82 184.06 666.03 182.4 666.02 181.1L666 181.08L666.02 181.07Z" fill="#F4EFE2"/>
<path d="M669.99 152.92C666.48 89.02 600.03 48.56 541.17 72.4C535.94 74.49 535.96 75.8 541.17 76.98C545.66 78.04 550.23 79.25 554.56 80.68C563.34 83.54 571.99 87.46 579.89 92.31C593.32 100.09 603.47 111.82 611.8 124.55C617.21 133.45 623.33 142.69 630.92 149.41C636.57 154.52 641.57 159.21 649.14 162.25C652.39 163.58 656.82 164.63 660.95 165.35C662.5 165.64 665.57 166.24 666.43 165.21C667.2 164.31 665.83 162 665.11 160.79C663.4 158.02 661.61 155.23 659.89 152.5C651.54 139.41 643.21 126.26 633.08 114.4C631.54 112.29 620.13 101.49 629.04 108.76C635.27 114.15 640.5 120.23 645.5 126.63C650.4 132.88 655.01 139.05 659.24 145.74C662.01 150.17 664.54 154.88 666.77 159.58C671.12 169.46 670.01 157.1 670 153.09V152.94L669.99 152.92Z" fill="#B9CF41"/>
<path d="M144.44 217.15L135.63 190.3H66.51L57.84 217.15H0L69.95 22.58H133.43L203.38 217.14H144.45L144.44 217.15ZM82.34 140.73H119.79L101.2 82.35L82.34 140.73Z" fill="#F4EFE2"/>
<path d="M308.99 212.6C324.14 212.6 336.85 216.71 347.13 224.92C357.41 233.13 364.25 244.63 367.65 259.41L315.46 274.14C314.72 270.37 312.89 267.37 309.95 265.12C307.01 262.87 303.39 261.75 299.07 261.75H258.86C243.99 261.75 231.99 257.76 222.85 249.77C213.72 241.78 209.15 231.36 209.15 218.51C209.15 210.25 211.03 202.47 214.8 195.17C218.56 187.87 223.66 182.3 230.08 178.44C217.59 166.23 211.35 151.41 211.35 133.96C211.35 116.51 217.98 100.45 231.25 88.25C244.51 76.04 261.11 69.94 281.03 69.94C290.85 69.94 299.89 71.55 308.16 74.76C310.73 66.5 315.69 60.01 323.03 55.28C330.37 50.55 339.23 48.19 349.61 48.19H362.28V95.01H352.09C346.49 95.01 342.86 96.89 341.21 100.66C347.54 110.48 350.71 121.59 350.71 133.98C350.71 152.25 344.05 167.49 330.74 179.69C317.43 191.9 300.86 198 281.03 198C276.99 198 272.03 197.5 266.16 196.49C262.03 198.79 259.96 201.81 259.96 205.58C259.96 207.69 260.79 209.39 262.44 210.67C264.09 211.96 266.25 212.6 268.91 212.6H308.98H308.99ZM281.04 117.87C275.99 117.87 271.81 119.38 268.51 122.41C265.21 125.44 263.55 129.29 263.55 133.98C263.55 138.67 265.2 142.52 268.51 145.55C271.82 148.58 275.99 150.09 281.04 150.09C286.09 150.09 290.15 148.58 293.5 145.55C296.85 142.52 298.53 138.67 298.53 133.98C298.53 129.29 296.85 125.44 293.5 122.41C290.15 119.38 286 117.87 281.04 117.87Z" fill="#F4EFE2"/>
<path d="M460.45 71.05H467.47V123.24H460.45C449.62 123.24 441.4 125.86 435.8 131.09C430.2 136.32 427.4 143.57 427.4 152.85V217.15H376.59V73.39H427.4V85.51C437.04 75.87 448.05 71.05 460.45 71.05Z" fill="#F4EFE2"/>
<path d="M703.52 68.02C703.52 50.67 708.11 36.79 717.29 26.37C726.47 15.95 740.42 10.74 759.15 10.74C770.07 10.74 779.67 12.9 787.93 17.21V61.82C782.79 58.61 777.05 57 770.72 57C765.3 57 761.22 58.29 758.47 60.86C755.72 63.43 754.34 66.92 754.34 71.32V73.39H784.22V119.52H754.34V217.15H703.53V119.52H684.39V73.39H703.53V68.02H703.52ZM852.09 52.19C846.21 57.97 838.92 60.86 830.2 60.86C821.48 60.86 814.18 57.97 808.31 52.19C802.43 46.41 799.5 39.16 799.5 30.43C799.5 21.7 802.44 14.46 808.31 8.67C814.18 2.89 821.48 0 830.2 0C838.92 0 846.22 2.89 852.09 8.67C857.96 14.45 860.9 21.71 860.9 30.43C860.9 39.15 857.96 46.4 852.09 52.19ZM804.72 217.15V73.39H855.53V217.14H804.72V217.15Z" fill="#F4EFE2"/>
<path d="M936.36 220.59C913.13 220.59 891.93 213.52 872.74 199.38L894.36 168.4C907.67 177.76 921.03 182.44 934.43 182.44C945.9 182.44 951.64 180.01 951.64 175.14C951.64 172.66 949.99 170.76 946.68 169.43C943.38 168.1 938.05 166.7 930.71 165.23C926.49 164.4 923.14 163.69 920.66 163.1C918.18 162.5 914.81 161.54 910.54 160.21C906.27 158.88 902.83 157.5 900.21 156.08C897.59 154.66 894.66 152.73 891.4 150.3C888.14 147.87 885.59 145.23 883.76 142.38C881.92 139.54 880.36 136.07 879.08 131.98C877.79 127.9 877.15 123.37 877.15 118.42C877.15 107.86 879.99 98.87 885.69 91.43C891.38 83.99 898.86 78.56 908.13 75.11C917.4 71.67 927.96 69.95 939.8 69.95C961.1 69.95 980.92 76.06 999.28 88.26L977.52 119.24C964.03 111.71 952.09 107.95 941.72 107.95C931.99 107.95 927.12 110.02 927.12 114.15C927.12 116.45 928.77 118.26 932.08 119.59C935.38 120.92 940.48 122.23 947.36 123.51C951.4 124.34 954.75 125.05 957.41 125.64C960.07 126.24 963.47 127.18 967.6 128.46C971.73 129.75 975.19 131.1 978 132.52C980.8 133.94 983.8 135.87 987.02 138.3C990.23 140.73 992.8 143.39 994.73 146.29C996.66 149.19 998.26 152.67 999.55 156.75C1000.83 160.84 1001.48 165.36 1001.48 170.31C1001.48 181.05 998.56 190.25 992.74 197.92C986.91 205.59 979.15 211.28 969.47 214.99C959.78 218.71 948.75 220.57 936.35 220.57L936.36 220.59Z" fill="#F4EFE2"/>
<path d="M1109.03 69.95C1124.91 69.95 1137.72 74.77 1147.45 84.41C1157.18 94.05 1162.05 106.81 1162.05 122.69V217.15H1111.24V139.9C1111.24 133.57 1109.47 128.49 1105.94 124.68C1102.4 120.87 1097.7 118.97 1091.83 118.97C1085.31 118.97 1080.06 120.95 1076.06 124.89C1072.07 128.84 1070.07 134.03 1070.07 140.45V217.15H1019.26V14.04H1070.07V85.23C1080.81 75.04 1093.8 69.95 1109.04 69.95H1109.03Z" fill="#F4EFE2"/>
</svg>
